{"title":"OneRepublic - I Lived (2014.Pop)","uid":11102096,"size":156492011,"categoryP":"video","categoryS":"music_videos","magnet":"?xt=urn:btih:8109abad404c7755c86b018448459a6b0296e749&amp;dn=OneRepublic+-+I+Lived+%282014.Pop%29&amp;tr=udp%3A%2F%2Ftracker.openbittorrent.com%3A80&amp;tr=udp%3A%2F%2Fopen.demonii.com%3A1337&amp;tr=udp%3A%2F%2Ftracker.coppersurfer.tk%3A6969&amp;tr=udp%3A%2F%2Fexodus.desync.com%3A6969","seeders":1,"leechers":0,"uploader":"MeRaDil","files":-1,"time":1411681224,"description":"ONEREPUBLIC - I LIVED\n\n\n\nMPEG4 PROMO MUSIC VID\n\n &lt;a href=&quot;\nhttp://gifyu.com/images/OneRepublic.png&quot; rel=&quot;nofollow&quot; target=&quot;_NEW&quot;&gt;\nhttp://gifyu.com/images/OneRepublic.png&lt;/a&gt;\n\n\nGeneral\nComplete name                            : OneRepublic - I Lived.mp4\nFormat                                   : MPEG-4\nFormat profile                           : Base Media\nCodec ID                                 : isom\nFile size                                : 149 MiB\nDuration                                 : 5mn 39s\nOverall bit rate                         : 3 686 Kbps\nMovie name                               : I Lived\nMovie name/More                          : OneRepublic\nAlbum                                    : Native\nPerformer                                : OneRepublic\nGenre                                    : Pop\nContentType                              : Music Video\nRecorded date                            : 2014\nISRC                                     : The Promo Bay\nCopyright                                : OneRepublic\nCover                                    : Yes\nRating                                   : ***\nMake                                     : MeRaDil\noday                                     : 25-09-2014 USA\naurl                                     : http://onerepublic.com\nlabl                                     : Mosley . Interscope\nrelease date                             : USA - september 25 - 2014\nPart_ID                                  : I Lived\n\nVideo\nID                                       : 1\nFormat                                   : AVC\nFormat/Info                              : Advanced Video Codec\nFormat profile                           : &lt;a class=&quot;__cf_email__&quot; href=&quot;/cdn-cgi/l/email-protection&quot; data-cfemail=&quot;d890b1bfb09894ecf6e8&quot;&gt;[email&amp;#160;protected]&lt;/a&gt;&lt;script data-cfhash='f9e31' type=&quot;text/javascript&quot;&gt;\n/* &lt;![CDATA[ */!function(){try{var t=&quot;currentScript&quot;in document?document.currentScript:function(){for(var t=document.getElementsByTagName(&quot;script&quot;),e=t.length;e--;)if(t[e].getAttribute(&quot;data-cfhash&quot;))return t[e]}();if(t&amp;&amp;t.previousSibling){var e,r,n,i,c=t.previousSibling,a=c.getAttribute(&quot;data-cfemail&quot;);if(a){for(e=&quot;&quot;,r=parseInt(a.substr(0,2),16),n=2;a.length-n;n+=2)i=parseInt(a.substr(n,2),16)^r,e+=String.fromCharCode(i);e=document.createTextNode(e),c.parentNode.replaceChild(e,c)}t.parentNode.removeChild(t);}}catch(u){}}()/* ]]&gt; */&lt;/script&gt;\nFormat settings, CABAC                   : Yes\nFormat settings, ReFrames                : 2 frames\nCodec ID                                 : avc1\nCodec ID/Info                            : Advanced Video Coding\nDuration                                 : 5mn 39s\nBit rate                                 : 3 423 Kbps\nWidth                                    : 1 920 pixels\nHeight                                   : 1 080 pixels\nDisplay aspect ratio                     : 16:9\nFrame rate mode                          : Variable\nFrame rate                               : 23.976 fps\nMinimum frame rate                       : 23.974 fps\nMaximum frame rate                       : 23.981 fps\nColor space                              : YUV\nChroma subsampling                       : 4:2:0\nBit depth                                : 8 bits\nScan type                                : Progressive\nBits/(Pixel*Frame)                       : 0.069\nStream size                              : 139 MiB (93%)\n\nAudio\nID                                       : 2\nFormat                                   : AAC\nFormat/Info                              : Advanced Audio Codec\nFormat profile                           : LC\nCodec ID                                 : 40\nDuration                                 : 5mn 39s\nBit rate mode                            : Constant\nBit rate                                 : 256 Kbps\nChannel(s)                               : 2 channels\nChannel positions                        : Front: L R\nSampling rate                            : 44.1 KHz\nCompression mode                         : Lossy\nStream size                              : 10.4 MiB (7%)\n &lt;a href=&quot;\nhttps://thepiratebay.se/user/MeRaDil&quot; rel=&quot;nofollow&quot; target=&quot;_NEW&quot;&gt;\nhttps://thepiratebay.se/user/MeRaDil&lt;/a&gt;\n\n:)","torrent":{"xt":"urn:btih:8109abad404c7755c86b018448459a6b0296e749","amp;dn":"OneRepublic+-+I+Lived+%282014.Pop%29","amp;tr":["udp%3A%2F%2Ftracker.openbittorrent.com%3A80","udp%3A%2F%2Fopen.demonii.com%3A1337","udp%3A%2F%2Ftracker.coppersurfer.tk%3A6969","udp%3A%2F%2Fexodus.desync.com%3A6969"],"infoHash":"8109abad404c7755c86b018448459a6b0296e749","infoHashBuffer":{"type":"Buffer","data":[129,9,171,173,64,76,119,85,200,107,1,132,72,69,154,107,2,150,231,73]},"announce":[],"urlList":[]}}